<?xml version="1.0" standalone="no"?>
<!DOCTYPE svg PUBLIC "-//W3C//DTD SVG 20010904//EN"
 "http://www.w3.org/TR/2001/REC-SVG-20010904/DTD/svg10.dtd">
<svg version="1.0" xmlns="http://www.w3.org/2000/svg"
 width="382.000000pt" height="382.000000pt" viewBox="0 0 382.000000 382.000000"
 preserveAspectRatio="xMidYMid meet">
<metadata>
Created by potrace 1.11, written by Peter Selinger 2001-2013
</metadata>
<g transform="translate(0.000000,382.000000) scale(0.100000,-0.100000)"
fill="#000000" stroke="none">
<path d="M1929 3786 c-2 -2 -58 -6 -124 -10 -66 -3 -129 -8 -140 -10 -11 -2
-42 -7 -68 -10 -45 -7 -58 -9 -104 -20 -278 -64 -543 -188 -763 -359 -96 -75
-278 -260 -349 -357 -35 -46 -88 -127 -119 -180 -30 -52 -59 -97 -64 -98 -4
-2 -6 -7 -3 -12 3 -4 -9 -36 -26 -70 -53 -108 -122 -343 -144 -490 -11 -77
-14 -402 -4 -470 5 -36 12 -83 15 -105 11 -80 64 -266 103 -363 35 -90 57
-134 130 -267 12 -22 50 -79 84 -127 252 -352 638 -623 1037 -727 47 -12 92
-25 100 -28 8 -3 18 -5 23 -5 4 1 27 -2 52 -8 143 -32 528 -35 670 -4 11 2 31
6 45 8 179 29 485 150 638 251 30 19 57 35 61 35 4 0 16 8 27 18 10 9 44 36
74 58 383 288 651 748 714 1229 29 217 13 496 -38 690 -28 109 -42 153 -77
239 -122 303 -340 595 -579 775 -19 14 -37 29 -40 32 -3 4 -48 34 -100 68
-277 179 -599 287 -914 306 -55 4 -103 8 -107 10 -3 3 -8 3 -10 1z m263 -766
c-2 -14 -14 -90 -28 -170 -14 -80 -27 -158 -30 -175 -2 -16 -6 -41 -9 -55 -3
-14 -7 -41 -10 -60 -3 -19 -12 -71 -20 -115 -8 -44 -17 -96 -20 -115 -5 -33
-14 -84 -21 -122 -2 -15 20 -16 238 -16 228 1 241 0 260 -20 11 -11 21 -32 21
-46 0 -14 -37 -85 -85 -163 -47 -76 -115 -187 -152 -248 -37 -60 -72 -117 -77
-125 -65 -105 -246 -403 -261 -430 -11 -19 -33 -54 -49 -78 -16 -24 -29 -45
-29 -47 0 -2 -36 -61 -79 -131 l-79 -128 -71 0 c-65 -1 -70 0 -66 19 2 11 9
49 15 85 14 86 19 118 26 160 3 19 8 49 11 65 2 17 20 120 38 230 19 110 37
221 40 247 l7 47 -236 -1 c-251 -2 -258 0 -277 50 -9 24 9 67 71 162 16 25 36
59 45 77 9 18 23 37 31 44 8 6 14 15 14 20 0 5 50 91 111 191 62 101 128 210
148 243 20 33 39 62 42 65 3 3 8 10 10 15 4 10 112 189 159 265 14 22 54 88
89 147 36 59 72 114 81 123 12 12 34 16 81 15 62 -1 64 -1 61 -25z"/>
</g>
</svg>
